<?xml version="1.0" encoding="UTF-8"?>
<svg xmlns="http://www.w3.org/2000/svg" xmlns:xlink="http://www.w3.org/1999/xlink" width="128px" height="128px" viewBox="0 0 128 128" version="1.1">
<g id="surface1">
<path style=" stroke:none;fill-rule:nonzero;fill:rgb(0%,0%,0%);fill-opacity:1;" d="M 41.214844 21.617188 L 121.945312 21.617188 C 125.289062 21.617188 128 18.90625 128 15.5625 C 128 12.21875 125.289062 9.507812 121.945312 9.507812 L 41.214844 9.507812 C 37.871094 9.507812 35.160156 12.21875 35.160156 15.5625 C 35.160156 18.90625 37.871094 21.617188 41.214844 21.617188 Z M 41.214844 21.617188 "/>
<path style=" stroke:none;fill-rule:nonzero;fill:rgb(0%,0%,0%);fill-opacity:1;" d="M 121.945312 57.945312 L 41.214844 57.945312 C 37.871094 57.945312 35.160156 60.65625 35.160156 64 C 35.160156 67.34375 37.871094 70.054688 41.214844 70.054688 L 121.945312 70.054688 C 125.289062 70.054688 128 67.34375 128 64 C 128 60.65625 125.289062 57.945312 121.945312 57.945312 Z M 121.945312 57.945312 "/>
<path style=" stroke:none;fill-rule:nonzero;fill:rgb(0%,0%,0%);fill-opacity:1;" d="M 121.945312 106.382812 L 41.214844 106.382812 C 37.871094 106.382812 35.160156 109.09375 35.160156 112.4375 C 35.160156 115.78125 37.871094 118.492188 41.214844 118.492188 L 121.945312 118.492188 C 125.289062 118.492188 128 115.78125 128 112.4375 C 128 109.09375 125.289062 106.382812 121.945312 106.382812 Z M 121.945312 106.382812 "/>
<path style=" stroke:none;fill-rule:nonzero;fill:rgb(0%,0%,0%);fill-opacity:1;" d="M 7.195312 19.792969 L 7.195312 34.957031 C 7.195312 36.601562 8.535156 37.839844 10.3125 37.839844 C 12.0625 37.839844 13.429688 36.574219 13.429688 34.957031 L 13.429688 12.28125 C 13.429688 10.683594 12.117188 9.429688 10.445312 9.429688 C 8.972656 9.429688 8.238281 10.417969 7.996094 10.742188 C 7.984375 10.757812 7.976562 10.769531 7.964844 10.785156 L 5.332031 14.511719 C 4.820312 15.066406 4.367188 15.957031 4.367188 16.808594 C 4.363281 18.4375 5.628906 19.761719 7.195312 19.792969 Z M 7.195312 19.792969 "/>
<path style=" stroke:none;fill-rule:nonzero;fill:rgb(0%,0%,0%);fill-opacity:1;" d="M 3.078125 78.203125 L 14.949219 78.203125 C 16.503906 78.203125 17.765625 76.835938 17.765625 75.152344 C 17.765625 73.488281 16.503906 72.136719 14.949219 72.136719 L 6.332031 72.136719 L 6.332031 72.085938 C 6.332031 71.179688 8.410156 69.710938 10.078125 68.535156 C 13.398438 66.191406 17.535156 63.273438 17.535156 58.214844 C 17.535156 53.414062 13.8125 49.796875 8.878906 49.796875 C 4.15625 49.796875 0.59375 53.042969 0.59375 57.347656 C 0.59375 59.847656 2.222656 60.734375 3.613281 60.734375 C 5.605469 60.734375 6.796875 59.25 6.796875 57.816406 C 6.796875 56.921875 7.027344 55.898438 8.8125 55.898438 C 11.226562 55.898438 11.296875 58.039062 11.296875 58.28125 C 11.296875 60.203125 8.800781 62 6.390625 63.738281 C 3.40625 65.886719 0.0273438 68.320312 0.0273438 72.085938 L 0.0273438 75.320312 C 0.0273438 77.046875 1.605469 78.203125 3.078125 78.203125 Z M 3.078125 78.203125 "/>
<path style=" stroke:none;fill-rule:nonzero;fill:rgb(0%,0%,0%);fill-opacity:1;" d="M 17.132812 98 C 17.132812 93.015625 14.191406 90.160156 9.0625 90.160156 C 2.339844 90.160156 0.5625 94.960938 0.5625 97.5 C 0.5625 100.457031 2.757812 100.777344 3.703125 100.777344 C 5.542969 100.777344 6.78125 99.539062 6.78125 97.699219 C 6.78125 96.992188 7.03125 96.179688 8.996094 96.179688 C 10.40625 96.179688 10.980469 96.382812 10.980469 98.425781 C 10.980469 100.425781 10.550781 100.640625 8.863281 100.640625 C 7.242188 100.640625 6.019531 101.921875 6.019531 103.621094 C 6.019531 105.296875 7.257812 106.5625 8.898438 106.5625 C 11.125 106.5625 11.574219 107.476562 11.574219 108.945312 L 11.574219 109.574219 C 11.574219 112.046875 10.609375 112.515625 8.832031 112.515625 C 6.375 112.515625 6.183594 111.25 6.183594 110.863281 C 6.183594 109.398438 5.214844 107.917969 3.042969 107.917969 C 1.136719 107.917969 0 109.105469 0 111.09375 C 0 114.71875 3.105469 118.570312 8.863281 118.570312 C 14.453125 118.570312 17.792969 115.207031 17.792969 109.574219 L 17.792969 108.945312 C 17.792969 106.636719 17.054688 104.71875 15.667969 103.34375 C 16.617188 101.96875 17.132812 100.136719 17.132812 98 Z M 17.132812 98 "/>
</g>
</svg>
