<?xml version="1.0" encoding="utf-8"?>
<!-- Uploaded to SVGRepo https://www.svgrepo.com -->
<svg version="1.1" id="_x31_" xmlns="http://www.w3.org/2000/svg" xmlns:xlink="http://www.w3.org/1999/xlink" x="0px" y="0px"
	 viewBox="0 0 128 128" style="enable-background:new 0 0 128 128;" xml:space="preserve">
<g>
	<circle cx="104.1" cy="18.5" r="8.9"/>
	<path d="M115,44.6c0-7.5-5.5-13.6-12.5-14.8c0,0-0.9-0.1-1.1-0.1c-2.8,0-5,2.2-5,5c0,0.1,0,33.4,0,33.4c0,2.1,1.8,3.9,3.9,3.9
		c2.1,0,3.9-1.8,3.9-3.9V43.1c0-0.7,0.4-1.1,1.1-1.1c0.7,0,1.1,0.4,1.1,1.1v25.1c0,1.4-0.6,2.8-1.3,3.9c-1.1,1.3-2.8,2.2-4.8,2.2
		c-0.6,0-1.1-0.1-1.7-0.2v37c0,3.1,2.5,5.6,5.6,5.6c3.1,0,5.6-2.5,5.6-5.6V70c1.4-1.1,2.6-2.8,3-4.6c1.4-6.1,2.2-12.6,2.2-19.2
		C115.1,45.9,115,44.7,115,44.6z"/>
</g>
<g>
	<circle cx="61.4" cy="18.5" r="8.9"/>
	<path d="M72.2,44.6c0-7.5-5.5-13.6-12.5-14.8c0,0-0.9-0.1-1.1-0.1c-2.8,0-5,2.2-5,5c0,0.1,0,33.4,0,33.4c0,2.1,1.8,3.9,3.9,3.9
		c2.1,0,3.9-1.8,3.9-3.9V43.1c0-0.7,0.4-1.1,1.1-1.1c0.7,0,1.1,0.4,1.1,1.1v25.1c0,1.4-0.6,2.8-1.3,3.9c-1.1,1.3-2.8,2.2-4.8,2.2
		c-0.6,0-1.1-0.1-1.7-0.2v37c0,3.1,2.5,5.6,5.6,5.6c3.1,0,5.6-2.5,5.6-5.6V70c1.4-1.1,2.6-2.8,3-4.6c1.4-6.1,2.2-12.6,2.2-19.2
		C72.3,45.9,72.2,44.7,72.2,44.6z"/>
</g>
<g>
	<circle cx="18.6" cy="18.5" r="8.9"/>
	<path d="M29.4,44.6c0-7.5-5.5-13.6-12.5-14.8c0,0-0.9-0.1-1.1-0.1c-2.8,0-5,2.2-5,5c0,0.1,0,33.4,0,33.4c0,2.1,1.8,3.9,3.9,3.9
		c2.1,0,3.9-1.8,3.9-3.9V43.1c0-0.7,0.4-1.1,1.1-1.1c0.7,0,1.1,0.4,1.1,1.1v25.1c0,1.4-0.6,2.8-1.3,3.9c-1.1,1.3-2.8,2.2-4.8,2.2
		c-0.6,0-1.1-0.1-1.7-0.2v37c0,3.1,2.5,5.6,5.6,5.6c3.1,0,5.6-2.5,5.6-5.6V70c1.4-1.1,2.6-2.8,3-4.6c1.4-6.1,2.2-12.6,2.2-19.2
		C29.5,45.9,29.4,44.7,29.4,44.6z"/>
</g>
</svg>
