<?xml version="1.0" encoding="UTF-8"?>
<svg xmlns="http://www.w3.org/2000/svg" xmlns:xlink="http://www.w3.org/1999/xlink" width="128px" height="128px" viewBox="0 0 128 128" version="1.1">
<g id="surface1">
<path style=" stroke:none;fill-rule:nonzero;fill:rgb(0%,0%,0%);fill-opacity:1;" d="M 94.898438 12.277344 L 87.398438 12.277344 L 87.398438 6.789062 C 87.398438 3.046875 84.355469 0 80.609375 0 L 47.390625 0 C 43.644531 0 40.597656 3.046875 40.597656 6.789062 L 40.597656 12.277344 L 33.101562 12.277344 C 27.484375 12.277344 22.917969 16.847656 22.917969 22.460938 L 22.917969 117.816406 C 22.917969 123.429688 27.484375 128 33.101562 128 L 94.898438 128 C 100.515625 128 105.082031 123.429688 105.082031 117.816406 L 105.082031 22.460938 C 105.082031 16.847656 100.515625 12.277344 94.898438 12.277344 Z M 33.101562 117.816406 L 33.101562 22.460938 L 94.898438 22.460938 L 94.898438 117.816406 Z M 33.101562 117.816406 "/>
<path style=" stroke:none;fill-rule:nonzero;fill:rgb(0%,0%,0%);fill-opacity:1;" d="M 41.617188 90.476562 L 86.382812 90.476562 L 86.382812 110.734375 L 41.617188 110.734375 Z M 41.617188 90.476562 "/>
<path style=" stroke:none;fill-rule:nonzero;fill:rgb(0%,0%,0%);fill-opacity:1;" d="M 41.617188 59.964844 L 86.382812 59.964844 L 86.382812 80.222656 L 41.617188 80.222656 Z M 41.617188 59.964844 "/>
<path style=" stroke:none;fill-rule:nonzero;fill:rgb(0%,0%,0%);fill-opacity:1;" d="M 41.617188 29.457031 L 86.382812 29.457031 L 86.382812 49.710938 L 41.617188 49.710938 Z M 41.617188 29.457031 "/>
</g>
</svg>
