<?xml version="1.0" encoding="UTF-8"?>
<svg xmlns="http://www.w3.org/2000/svg" xmlns:xlink="http://www.w3.org/1999/xlink" width="128px" height="128px" viewBox="0 0 128 128" version="1.1">
<g id="surface1">
<path style=" stroke:none;fill-rule:nonzero;fill:rgb(0%,0%,0%);fill-opacity:1;" d="M 125.867188 99.199219 L 113.066406 99.199219 L 113.066406 88.535156 C 113.066406 87.253906 112.214844 86.398438 110.933594 86.398438 L 98.132812 86.398438 L 98.132812 80 L 115.199219 80 C 116.480469 80 117.332031 79.148438 117.332031 77.867188 L 117.332031 56.535156 C 117.332031 55.253906 116.480469 54.398438 115.199219 54.398438 L 98.132812 54.398438 L 98.132812 43.734375 C 98.132812 42.453125 97.28125 41.601562 96 41.601562 L 66.132812 41.601562 L 66.132812 33.066406 L 83.199219 33.066406 C 84.480469 33.066406 85.332031 32.214844 85.332031 30.933594 L 85.332031 9.601562 C 85.332031 8.320312 84.480469 7.464844 83.199219 7.464844 L 44.800781 7.464844 C 43.519531 7.464844 42.667969 8.320312 42.667969 9.601562 L 42.667969 30.933594 C 42.667969 32.214844 43.519531 33.066406 44.800781 33.066406 L 61.867188 33.066406 L 61.867188 41.601562 L 32 41.601562 C 30.71875 41.601562 29.867188 42.453125 29.867188 43.734375 L 29.867188 54.398438 L 12.800781 54.398438 C 11.519531 54.398438 10.667969 55.253906 10.667969 56.535156 L 10.667969 77.867188 C 10.667969 79.148438 11.519531 80 12.800781 80 L 29.867188 80 L 29.867188 86.398438 L 17.066406 86.398438 C 15.785156 86.398438 14.933594 87.253906 14.933594 88.535156 L 14.933594 99.199219 L 2.132812 99.199219 C 0.851562 99.199219 0 100.054688 0 101.332031 L 0 118.398438 C 0 119.679688 0.851562 120.535156 2.132812 120.535156 L 32 120.535156 C 33.28125 120.535156 34.132812 119.679688 34.132812 118.398438 L 34.132812 101.332031 C 34.132812 100.054688 33.28125 99.199219 32 99.199219 L 19.199219 99.199219 L 19.199219 90.667969 L 61.867188 90.667969 L 61.867188 99.199219 L 49.066406 99.199219 C 47.785156 99.199219 46.933594 100.054688 46.933594 101.332031 L 46.933594 118.398438 C 46.933594 119.679688 47.785156 120.535156 49.066406 120.535156 L 78.933594 120.535156 C 80.214844 120.535156 81.066406 119.679688 81.066406 118.398438 L 81.066406 101.332031 C 81.066406 100.054688 80.214844 99.199219 78.933594 99.199219 L 66.132812 99.199219 L 66.132812 90.667969 L 108.800781 90.667969 L 108.800781 99.199219 L 96 99.199219 C 94.71875 99.199219 93.867188 100.054688 93.867188 101.332031 L 93.867188 118.398438 C 93.867188 119.679688 94.71875 120.535156 96 120.535156 L 125.867188 120.535156 C 127.148438 120.535156 128 119.679688 128 118.398438 L 128 101.332031 C 128 100.054688 127.148438 99.199219 125.867188 99.199219 Z M 29.867188 103.464844 L 29.867188 116.265625 L 4.265625 116.265625 L 4.265625 103.464844 Z M 113.066406 58.667969 L 113.066406 75.734375 L 78.933594 75.734375 L 78.933594 58.667969 Z M 46.933594 28.800781 L 46.933594 11.734375 L 81.066406 11.734375 L 81.066406 28.800781 Z M 14.933594 75.734375 L 14.933594 58.667969 L 49.066406 58.667969 L 49.066406 75.734375 Z M 76.800781 103.464844 L 76.800781 116.265625 L 51.199219 116.265625 L 51.199219 103.464844 Z M 93.867188 86.398438 L 34.132812 86.398438 L 34.132812 80 L 51.199219 80 C 52.480469 80 53.332031 79.148438 53.332031 77.867188 L 53.332031 56.535156 C 53.332031 55.253906 52.480469 54.398438 51.199219 54.398438 L 34.132812 54.398438 L 34.132812 45.867188 L 93.867188 45.867188 L 93.867188 54.398438 L 76.800781 54.398438 C 75.519531 54.398438 74.667969 55.253906 74.667969 56.535156 L 74.667969 77.867188 C 74.667969 79.148438 75.519531 80 76.800781 80 L 93.867188 80 Z M 123.734375 116.265625 L 98.132812 116.265625 L 98.132812 103.464844 L 123.734375 103.464844 Z M 123.734375 116.265625 "/>
<path style=" stroke:none;fill-rule:nonzero;fill:rgb(0%,0%,0%);fill-opacity:1;" d="M 53.332031 18.132812 L 57.601562 18.132812 L 57.601562 22.398438 L 53.332031 22.398438 Z M 53.332031 18.132812 "/>
<path style=" stroke:none;fill-rule:nonzero;fill:rgb(0%,0%,0%);fill-opacity:1;" d="M 61.867188 18.132812 L 66.132812 18.132812 L 66.132812 22.398438 L 61.867188 22.398438 Z M 61.867188 18.132812 "/>
<path style=" stroke:none;fill-rule:nonzero;fill:rgb(0%,0%,0%);fill-opacity:1;" d="M 70.398438 18.132812 L 74.667969 18.132812 L 74.667969 22.398438 L 70.398438 22.398438 Z M 70.398438 18.132812 "/>
<path style=" stroke:none;fill-rule:nonzero;fill:rgb(0%,0%,0%);fill-opacity:1;" d="M 21.332031 65.066406 L 25.601562 65.066406 L 25.601562 69.332031 L 21.332031 69.332031 Z M 21.332031 65.066406 "/>
<path style=" stroke:none;fill-rule:nonzero;fill:rgb(0%,0%,0%);fill-opacity:1;" d="M 29.867188 65.066406 L 34.132812 65.066406 L 34.132812 69.332031 L 29.867188 69.332031 Z M 29.867188 65.066406 "/>
<path style=" stroke:none;fill-rule:nonzero;fill:rgb(0%,0%,0%);fill-opacity:1;" d="M 38.398438 65.066406 L 42.667969 65.066406 L 42.667969 69.332031 L 38.398438 69.332031 Z M 38.398438 65.066406 "/>
<path style=" stroke:none;fill-rule:nonzero;fill:rgb(0%,0%,0%);fill-opacity:1;" d="M 85.332031 65.066406 L 89.601562 65.066406 L 89.601562 69.332031 L 85.332031 69.332031 Z M 85.332031 65.066406 "/>
<path style=" stroke:none;fill-rule:nonzero;fill:rgb(0%,0%,0%);fill-opacity:1;" d="M 93.867188 65.066406 L 98.132812 65.066406 L 98.132812 69.332031 L 93.867188 69.332031 Z M 93.867188 65.066406 "/>
<path style=" stroke:none;fill-rule:nonzero;fill:rgb(0%,0%,0%);fill-opacity:1;" d="M 102.398438 65.066406 L 106.667969 65.066406 L 106.667969 69.332031 L 102.398438 69.332031 Z M 102.398438 65.066406 "/>
<path style=" stroke:none;fill-rule:nonzero;fill:rgb(0%,0%,0%);fill-opacity:1;" d="M 108.800781 107.734375 L 113.066406 107.734375 L 113.066406 112 L 108.800781 112 Z M 108.800781 107.734375 "/>
<path style=" stroke:none;fill-rule:nonzero;fill:rgb(0%,0%,0%);fill-opacity:1;" d="M 61.867188 107.734375 L 66.132812 107.734375 L 66.132812 112 L 61.867188 112 Z M 61.867188 107.734375 "/>
<path style=" stroke:none;fill-rule:nonzero;fill:rgb(0%,0%,0%);fill-opacity:1;" d="M 14.933594 107.734375 L 19.199219 107.734375 L 19.199219 112 L 14.933594 112 Z M 14.933594 107.734375 "/>
</g>
</svg>
